{"accessors":[{"bufferView":3,"componentType":5126,"count":2734,"max":[0.6375746726989746,1.234542965888977,0.2206469625234604],"min":[-0.6375746726989746,0.00006820451380917802,-0.19397485256195068],"type":"VEC3"},{"bufferView":3,"byteOffset":32808,"componentType":5126,"count":2734,"max":[0.9996587634086609,0.9987543225288391,0.9999871850013733],"min":[-0.9996587634086609,-0.9997960329055786,-0.9999850988388062],"type":"VEC3"},{"bufferView":2,"componentType":5126,"count":2734,"max":[0.9890823364257812,0.9924331307411194],"min":[0.008027450181543827,0.014658378437161446],"type":"VEC2"},{"bufferView":1,"componentType":5125,"count":11022,"type":"SCALAR"},{"bufferView":3,"byteOffset":65616,"componentType":5126,"count":2720,"max":[0.6395889520645142,1.238120675086975,0.22411350905895233],"min":[-0.6395889520645142,-0.002737673232331872,-0.1961144059896469],"type":"VEC3"},{"bufferView":3,"byteOffset":98256,"componentType":5126,"count":2720,"max":[0.9997512102127075,0.9995177984237671,0.9999850988388062],"min":[-0.9997512102127075,-0.9995926022529602,-0.9999719262123108],"type":"VEC3"},{"bufferView":2,"byteOffset":21872,"componentType":5126,"count":2720,"max":[0.9890823364257812,0.9924331307411194],"min":[0.008027450181543827,0.014658378437161446],"type":"VEC2"},{"bufferView":1,"byteOffset":44088,"componentType":5125,"count":10974,"type":"SCALAR"},{"bufferView":3,"byteOffset":130896,"componentType":5126,"count":7305,"max":[0.17506907880306244,1.6187063455581665,0.1991298645734787],"min":[-0.17506907880306244,1.188536524772644,-0.22177660465240479],"type":"VEC3"},{"bufferView":3,"byteOffset":218556,"componentType":5126,"count":7305,"max":[0.9996689558029175,0.9989421367645264,0.9998053312301636],"min":[-0.9996688961982727,-0.9997327923774719,-0.9989103078842163],"type":"VEC3"},{"bufferView":2,"byteOffset":43632,"componentType":5126,"count":7305,"max":[0.9842996001243591,0.9907442927360535],"min":[0.27097949385643005,0.01543346606194973],"type":"VEC2"},{"bufferView":1,"byteOffset":87984,"componentType":5125,"count":15735,"type":"SCALAR"},{"bufferView":3,"byteOffset":306216,"componentType":5126,"count":6515,"max":[0.3820266127586365,1.7326897382736206,0.20243985950946808],"min":[-0.3820266127586365,1.0773414373397827,-0.33075645565986633],"type":"VEC3"},{"bufferView":3,"byteOffset":384396,"componentType":5126,"count":6515,"max":[0.9996697902679443,0.9999777674674988,0.9999861121177673],"min":[-0.9996697902679443,-0.9999405145645142,-0.9999861121177673],"type":"VEC3"},{"bufferView":2,"byteOffset":102072,"componentType":5126,"count":6515,"max":[0.9638965129852295,0.9696741104125977],"min":[0.07385072857141495,0.03464716672897339],"type":"VEC2"},{"bufferView":1,"byteOffset":150924,"componentType":5125,"count":36558,"type":"SCALAR"},{"bufferView":3,"byteOffset":462576,"componentType":5126,"count":5929,"max":[0.382041871547699,1.7326897382736206,0.204586461186409],"min":[-0.382041871547699,1.0773414373397827,-0.3328903019428253],"type":"VEC3"},{"bufferView":3,"byteOffset":533724,"componentType":5126,"count":5929,"max":[0.9996876120567322,0.9999344944953918,0.9999853372573853],"min":[-0.9996876120567322,-0.9999447464942932,-0.9999853372573853],"type":"VEC3"},{"bufferView":2,"byteOffset":154192,"componentType":5126,"count":5929,"max":[0.9638965129852295,0.9696741104125977],"min":[0.07385072857141495,0.03464716672897339],"type":"VEC2"},{"bufferView":1,"byteOffset":297156,"componentType":5125,"count":33054,"type":"SCALAR"},{"bufferView":5,"componentType":5126,"count":55,"max":[1,1.0000001192092896,1,0,0.9958261847496033,1.0000004768371582,1.0000004768371582,0,1,1,1,0,0.37130501866340637,0.7109375,0.11530822515487671,1],"min":[-1,-1.0000001192092896,-1,0,-0.9958261847496033,-1.0000001192092896,-6.048215368537058e-7,0,-1,-0.20032447576522827,-0.03182823956012726,0,-0.37130501866340637,-1.1916669607162476,-1.3426951169967651,1],"type":"MAT4"},{"bufferView":0,"componentType":5123,"count":2734,"type":"VEC4"},{"bufferView":4,"componentType":5126,"count":2734,"max":[1,0.49491623044013977,0.28993186354637146,0.22964926064014435],"min":[0.2574978768825531,0,0,0],"type":"VEC4"},{"bufferView":0,"byteOffset":21872,"componentType":5123,"count":2720,"type":"VEC4"},{"bufferView":4,"byteOffset":43744,"componentType":5126,"count":2720,"max":[1,0.49491623044013977,0.28993186354637146,0.22964926064014435],"min":[0.2574978768825531,0,0,0],"type":"VEC4"},{"bufferView":0,"byteOffset":43632,"componentType":5123,"count":7305,"type":"VEC4"},{"bufferView":4,"byteOffset":87264,"componentType":5126,"count":7305,"max":[1,0,0,0],"min":[1,0,0,0],"type":"VEC4"},{"bufferView":0,"byteOffset":102072,"componentType":5123,"count":6515,"type":"VEC4"},{"bufferView":4,"byteOffset":204144,"componentType":5126,"count":6515,"max":[1,0,0,0],"min":[1,0,0,0],"type":"VEC4"},{"bufferView":0,"byteOffset":154192,"componentType":5123,"count":5929,"type":"VEC4"},{"bufferView":4,"byteOffset":308384,"componentType":5126,"count":5929,"max":[1,0,0,0],"min":[1,0,0,0],"type":"VEC4"}],"asset":{"extras":{"author":"Hasksoft (https://sketchfab.com/Hasksoft)","license":"CC-BY-4.0 (http://creativecommons.org/licenses/by/4.0/)","source":"https://sketchfab.com/3d-models/anya-forger-spy-x-family-470b41ca5e074f1493a26940fa371ec3","title":"Anya Forger (Spy x Family)"},"generator":"Sketchfab-13.4.0","version":"2.0"},"bufferViews":[{"buffer":0,"byteLength":201624,"byteStride":8,"name":"shortBufferViews","target":34962},{"buffer":0,"byteLength":429372,"byteOffset":201624,"name":"floatBufferViews","target":34963},{"buffer":0,"byteLength":201624,"byteOffset":630996,"byteStride":8,"name":"floatBufferViews","target":34962},{"buffer":0,"byteLength":604872,"byteOffset":832620,"byteStride":12,"name":"floatBufferViews","target":34962},{"buffer":0,"byteLength":403248,"byteOffset":1437492,"byteStride":16,"name":"floatBufferViews","target":34962},{"buffer":0,"byteLength":3520,"byteOffset":1840740,"name":"floatBufferViews"}],"buffers":[{"byteLength":1844260,"uri":"data:application/octet-stream;base64,"}],"extensionsUsed":["KHR_materials_unlit"],"images":[{"uri":"data:application/octet-stream;base64,"},{"uri":"data:application/octet-stream;base64,"}],"materials":[{"doubleSided":true,"extensions":{"KHR_materials_unlit":{}},"name":"Main","pbrMetallicRoughness":{"baseColorTexture":{"index":0},"metallicFactor":0}},{"extensions":{"KHR_materials_unlit":{}},"name":"Outline","pbrMetallicRoughness":{"baseColorFactor":[0,0,0,1],"metallicFactor":0}},{"doubleSided":true,"extensions":{"KHR_materials_unlit":{}},"name":"Hair","pbrMetallicRoughness":{"baseColorTexture":{"index":1},"metallicFactor":0}}],"meshes":[{"name":"Object_0","primitives":[{"attributes":{"JOINTS_0":21,"NORMAL":1,"POSITION":0,"TEXCOORD_0":2,"WEIGHTS_0":22},"indices":3,"material":0,"mode":4}]},{"name":"Object_1","primitives":[{"attributes":{"JOINTS_0":23,"NORMAL":5,"POSITION":4,"TEXCOORD_0":6,"WEIGHTS_0":24},"indices":7,"material":1,"mode":4}]},{"name":"mesh_1","primitives":[{"attributes":{"JOINTS_0":25,"NORMAL":9,"POSITION":8,"TEXCOORD_0":10,"WEIGHTS_0":26},"indices":11,"material":0,"mode":4}]},{"name":"Object_3","primitives":[{"attributes":{"JOINTS_0":27,"NORMAL":13,"POSITION":12,"TEXCOORD_0":14,"WEIGHTS_0":28},"indices":15,"material":2,"mode":4}]},{"name":"Object_4","primitives":[{"attributes":{"JOINTS_0":29,"NORMAL":17,"POSITION":16,"TEXCOORD_0":18,"WEIGHTS_0":30},"indices":19,"material":1,"mode":4}]}],"nodes":[{"children":[1],"matrix":[1,0,0,0,0,2.220446049250313e-16,-1,0,0,1,2.220446049250313e-16,0,0,0,0,1],"name":"Sketchfab_model"},{"children":[2],"name":"root"},{"children":[3],"matrix":[1,0,0,0,0,2.220446049250313e-16,1,0,0,-1,2.220446049250313e-16,0,0,0,0,1],"name":"GLTF_SceneRootNode"},{"children":[4],"name":"Armature_60"},{"children":[5,7,8,10,12,13,6,9,11],"name":"GLTF_created_0"},{"children":[14],"name":"GLTF_created_0_rootJoint"},{"name":"Body_57"},{"mesh":0,"name":"Object_7","skin":0},{"mesh":1,"name":"Object_8","skin":0},{"name":"Face_58"},{"mesh":2,"name":"Object_10","skin":0},{"name":"Hair_59"},{"mesh":3,"name":"Object_12","skin":0},{"mesh":4,"name":"Object_13","skin":0},{"children":[15],"name":"RootBone_56"},{"children":[16,60,64],"name":"HipsBone_55","rotation":[0,0.7071068286895752,0,0.7071068286895752],"scale":[1,0.9999999403953552,1],"translation":[0,0.6417834758758545,0]},{"children":[17],"name":"SpineBone_46","rotation":[0,1,0,1.947071694985425e-7],"scale":[1,0.9999997615814209,1],"translation":[0,0.12187498807907104,0]},{"children":[18,22,41],"name":"ChestBone_45","rotation":[1.306667929412697e-8,3.1758961682726294e-8,0.04162469878792763,0.9991333484649658],"scale":[0.9999999403953552,0.9999999403953552,1],"translation":[0,0.13309597969055176,0]},{"children":[19],"name":"NeckBone_6","rotation":[5.551115123125783e-17,1.1920928955078125e-7,0,1],"translation":[7.450580596923828e-9,0.17836236953735352,-1.9984014443252818e-15]},{"children":[20,21],"name":"HeadBone_5","rotation":[-5.082038345705087e-9,-1.1915127373640644e-7,-0.0311933234333992,0.9995133876800537],"translation":[-7.450580596923828e-9,0.10833334922790527,0]},{"name":"LeftEyeBone_3","rotation":[-0.5000000596046448,-0.4999999403953552,-0.4999999403953552,0.5000000596046448],"scale":[1,1.0000001192092896,1.0000001192092896],"translation":[-0.02723449468612671,0.15102827548980713,-0.08725174516439438]},{"name":"RightEyeBone_4","rotation":[-0.5000000596046448,-0.4999999403953552,-0.4999999403953552,0.5000000596046448],"scale":[1,1.0000001192092896,1.0000001192092896],"translation":[-0.027234449982643127,0.15102827548980713,0.08725176006555557]},{"children":[23],"name":"LeftShoulderBone_25","rotation":[-0.6922229528427124,0.042157892137765884,0.035058241337537766,0.7195978760719299],"scale":[1.0000001192092896,1,1],"translation":[3.9733114021167637e-10,0.17836236953735352,-0.02499999850988388]},{"children":[24],"name":"LeftUpperArmBone_24","rotation":[-0.18153226375579834,-0.001030865591019392,0.00008910775068216026,0.9833844304084778],"scale":[0.9999999403953552,1.0000001192092896,1],"translation":[-2.752857078576476e-21,0.10561154037714005,0]},{"children":[25],"name":"LeftLowerArmBone_23","rotation":[-0.7774132490158081,-0.020389076322317123,-0.09556184709072113,0.6213541030883789],"scale":[1.0000001192092896,1,1.0000001192092896],"translation":[7.060115775110803e-23,0.20757374167442322,0]},{"children":[26,29,32,35,38],"name":"LeftHandBone_22","rotation":[-0.12192623317241669,0.31521326303482056,-0.11245345324277878,0.9344136118888855],"scale":[1,0.9999999403953552,1],"translation":[1.4810604298531871e-8,0.20556479692459106,1.4820143690030818e-7]},{"children":[27],"name":"LeftThumbProximalBone_9","rotation":[0.05485326051712036,0.06760421395301819,-0.3858323097229004,0.9184520840644836],"scale":[1,1.0000001192092896,1.000000238418579],"translation":[0.018697069957852364,-0.0017471881583333015,-0.006607408169656992]},{"children":[28],"name":"LeftThumbIntermediateBone_8","rotation":[-0.34717047214508057,0.11448577791452408,0.3674505352973938,0.8551875948905945],"scale":[1.0000001192092896,1.0000001192092896,1],"translation":[5.3405617705948316e-8,0.01788097433745861,3.143212978784504e-8]},{"name":"LeftThumbDistalBone_7","rotation":[-0.2647714614868164,0.018141647800803185,0.29371872544288635,0.9183116555213928],"scale":[1,1,1.0000001192092896],"translation":[-1.1845261660425876e-8,0.013410704210400581,7.497146725654602e-8]},{"children":[30],"name":"LeftIndexProximalBone_12","rotation":[-0.10736244171857834,-0.026551565155386925,-0.05316150188446045,0.9924425482749939],"scale":[1,1,1.0000001192092896],"translation":[0.016871968284249306,0.0333893820643425,0.001733479555696249]},{"children":[31],"name":"LeftIndexIntermediateBone_11","rotation":[-0.6374137997627258,0.012019806541502476,-0.013088283129036427,0.7703167200088501],"scale":[1.0000001192092896,0.9999998807907104,0.9999998807907104],"translation":[5.224142007875798e-9,0.020578013733029366,1.1845258995890617e-8]},{"name":"LeftIndexDistalBone_10","rotation":[-0.5172607898712158,0.04356875270605087,-0.03542774170637131,0.8539835810661316],"scale":[0.9999999403953552,0.9999998807907104,0.9999997615814209],"translation":[5.835320138203315e-8,0.015433361753821373,5.445335204967705e-8]},{"children":[33],"name":"LeftMiddleProximalBone_15","rotation":[-0.10992471873760223,-0.0303101297467947,0.02006830833852291,0.993274986743927],"scale":[1,1.0000001192092896,1.000000238418579],"translation":[0.0025929047260433435,0.03684552386403084,0.00012448057532310486]},{"children":[34],"name":"LeftMiddleIntermediateBone_14","rotation":[-0.6576213836669922,0.053016114979982376,-0.05023770406842232,0.7497997283935547],"scale":[1.0000001192092896,1,1],"translation":[-5.878609599108131e-8,0.023441215977072716,5.5078491101312466e-8]},{"name":"LeftMiddleDistalBone_13","rotation":[-0.5153806209564209,-0.05624103918671608,-0.001084855874069035,0.8551132082939148],"scale":[1.0000001192092896,1.0000001192092896,1.0000001192092896],"translation":[5.966285243630409e-10,0.017581000924110413,-4.915762019663816e-8]},{"children":[36],"name":"LeftRingProximalBone_18","rotation":[-0.11005783081054688,-0.030688589438796043,0.02762320078909397,0.99306720495224],"scale":[0.9999999403953552,1,1.0000001192092896],"translation":[-0.014990802854299545,0.034244246780872345,-0.0003264739643782377]},{"children":[37],"name":"LeftRingIntermediateBone_17","rotation":[-0.6867234110832214,-0.024108944460749626,0.021529624238610268,0.7261998653411865],"scale":[0.9999997615814209,0.9999999403953552,1],"translation":[-5.946642289700321e-8,0.020990192890167236,-1.211736417872089e-7]},{"name":"LeftRingDistalBone_16","rotation":[-0.4226941168308258,-0.10169399529695511,0.06207835674285889,0.8984065651893616],"scale":[0.9999999403953552,1,0.9999999403953552],"translation":[4.6565835631895425e-9,0.015742909163236618,6.18311801758864e-8]},{"children":[39],"name":"LeftLittleProximalBone_21","rotation":[-0.11014667898416519,-0.03402944654226303,0.09858761727809906,0.9884281754493713],"scale":[0.9999998807907104,1,0.9999999403953552],"translation":[-0.027803193777799606,0.030383531004190445,-0.00021636254678014666]},{"children":[40],"name":"LeftLittleIntermediateBone_20","rotation":[-0.6794912219047546,0.02623903751373291,0.16072818636894226,0.7153807878494263],"scale":[1.0000001192092896,1,0.9999999403953552],"translation":[-2.6528072183396034e-8,0.014363842085003853,-1.6763088694915496e-8]},{"name":"LeftLittleDistalBone_19","rotation":[-0.2666012644767761,-0.02516944892704487,-0.03735591843724251,0.9627537727355957],"scale":[1,1,1.0000001192092896],"translation":[7.19010486704974e-8,0.01077287271618843,-3.946459159465121e-8]},{"children":[42],"name":"RightShoulderBone_44","rotation":[-0.03505808860063553,0.7195978760719299,0.6922229528427124,0.04215765371918678],"scale":[1.0000001192092896,1,1],"translation":[-3.9733114021167637e-10,0.17836236953735352,0.02499999850988388]},{"children":[43],"name":"RightUpperArmBone_43","rotation":[-0.18153224885463715,0.0010308128548786044,-0.00008911670738598332,0.9833844900131226],"scale":[0.9999999403953552,1,1],"translation":[2.664534835583902e-16,0.10561154037714005,0]},{"children":[44],"name":"RightLowerArmBone_42","rotation":[-0.7774132490158081,0.020389072597026825,0.09556183218955994,0.6213539838790894],"scale":[1.0000001192092896,1.0000001192092896,1],"translation":[-2.752857280524868e-21,0.20757374167442322,-6.394692138332499e-36]},{"children":[45,48,51,54,57],"name":"RightHandBone_41","rotation":[-0.12192623317241669,-0.31521332263946533,0.11245346069335938,0.9344136118888855],"scale":[1,0.9999999403953552,1],"translation":[-1.4232262479652036e-8,0.20556484162807465,7.641607169261988e-8]},{"children":[46],"name":"RightThumbProximalBone_28","rotation":[0.05485326424241066,-0.06760421395301819,0.3858323097229004,0.9184520840644836],"scale":[1,1,1.0000001192092896],"translation":[-0.0186971053481102,-0.0017472398467361927,-0.006607404910027981]},{"children":[47],"name":"RightThumbIntermediateBone_27","rotation":[-0.34717050194740295,-0.11448578536510468,-0.3674505054950714,0.8551875948905945],"scale":[0.9999998807907104,0.9999998807907104,0.9999997615814209],"translation":[-1.1301022340148847e-7,0.017880966886878014,5.983746120818978e-8]},{"name":"RightThumbDistalBone_26","rotation":[-0.2647714912891388,-0.018141651526093483,-0.29371872544288635,0.9183116555213928],"scale":[0.9999998807907104,0.9999999403953552,1],"translation":[1.1845261660425876e-8,0.013410704210400581,7.497146725654602e-8]},{"children":[49],"name":"RightIndexProximalBone_31","rotation":[-0.10736241936683655,0.02655157260596752,0.05316149815917015,0.9924425482749939],"scale":[1,1.0000001192092896,1.0000001192092896],"translation":[-0.016871916130185127,0.03338944911956787,0.0017334705917164683]},{"children":[50],"name":"RightIndexIntermediateBone_30","rotation":[-0.6374137997627258,-0.012019813992083073,0.013088272884488106,0.7703167200088501],"scale":[1.000000238418579,1,1.0000001192092896],"translation":[-5.2241375669837e-9,0.020578013733029366,-1.7957063391804695e-8]},{"name":"RightIndexDistalBone_29","rotation":[-0.5172606706619263,-0.04356873780488968,0.035427749156951904,0.8539836406707764],"scale":[0.9999998807907104,1,0.9999999403953552],"translation":[1.2514753677805857e-9,0.015433406457304955,5.445322770469829e-8]},{"children":[52],"name":"RightMiddleProximalBone_34","rotation":[-0.10992471128702164,0.030310144647955894,-0.020068293437361717,0.993274986743927],"scale":[1,1.0000001192092896,1.0000001192092896],"translation":[-0.0025929047260433435,0.03684552013874054,0.00012449544738046825]},{"children":[53],"name":"RightMiddleIntermediateBone_33","rotation":[-0.657621443271637,-0.05301612243056297,0.050237711519002914,0.7497996687889099],"scale":[1.0000001192092896,0.9999999403953552,1.0000001192092896],"translation":[-8.185486177758605e-10,0.023441215977072716,5.507848044317143e-8]},{"name":"RightMiddleDistalBone_32","rotation":[-0.5153805613517761,0.056241028010845184,0.001084838411770761,0.8551132678985596],"scale":[1,1.0000001192092896,1],"translation":[-5.96631410942905e-10,0.0175810307264328,-4.915787243930936e-8]},{"children":[55],"name":"RightRingProximalBone_37","rotation":[-0.11005781590938568,0.030688602477312088,-0.02762323059141636,0.99306720495224],"scale":[1,1.0000001192092896,1.0000001192092896],"translation":[0.014990800060331821,0.03424418717622757,-0.00032647824264131486]},{"children":[56],"name":"RightRingIntermediateBone_36","rotation":[-0.6867233514785767,0.024108942598104477,-0.02152964286506176,0.7261999845504761],"scale":[0.9999998211860657,1,1.0000001192092896],"translation":[-2.9940540713369046e-8,0.020990192890167236,-9.137132650494095e-8]},{"name":"RightRingDistalBone_35","rotation":[-0.42269420623779297,0.10169397294521332,-0.06207837164402008,0.8984065055847168],"scale":[0.9999999403953552,1,1],"translation":[2.5145668658410614e-8,0.015742819756269455,2.2262531818029174e-9]},{"children":[58],"name":"RightLittleProximalBone_40","rotation":[-0.1101466715335846,0.03402942419052124,-0.09858763962984085,0.9884281754493713],"scale":[0.9999998807907104,1,1],"translation":[0.027803177013993263,0.03038359433412552,-0.00021635701705235988]},{"children":[59],"name":"RightLittleIntermediateBone_39","rotation":[-0.6794912219047546,-0.026239028200507164,-0.16072815656661987,0.7153807878494263],"scale":[1,0.9999999403953552,0.9999997615814209],"translation":[5.6330463849008083e-8,0.014363782480359077,-1.6763802790364934e-8]},{"name":"RightLittleDistalBone_38","rotation":[-0.2666012644767761,0.02516941726207733,0.037355922162532806,0.9627537727355957],"scale":[1,0.9999999403953552,0.9999999403953552],"translation":[-1.2296394125144161e-8,0.01077287271618843,2.0140044298955218e-8]},{"children":[61],"name":"LeftUpperLegBone_50","rotation":[1.702913721146615e-7,-0.05681704729795456,-0.9983845949172974,6.773117178227039e-9],"scale":[1,1,0.9999999403953552],"translation":[-5.040280193213675e-9,0.060937464237213135,0.11530821025371552]},{"children":[62],"name":"LeftLowerLegBone_49","rotation":[-4.657460639378996e-9,-9.19941900434651e-11,0.00991107989102602,0.9999508857727051],"scale":[1,0.9999999403953552,1],"translation":[-1.2514755898251906e-10,0.32296881079673767,-1.6668779897863098e-16]},{"children":[63],"name":"LeftFootBone_48","rotation":[-0.044075604528188705,-0.00811734702438116,-0.20038338005542755,0.9786919951438904],"scale":[1,1.000000238418579,1],"translation":[-3.8689913495204564e-9,0.3230322599411011,-2.1696253682534916e-9]},{"name":"LeftToesBone_47","rotation":[0.5206868052482605,0.8537477850914001,3.550683231878793e-7,6.470586555451519e-8],"scale":[1.0000001192092896,1.0000001192092896,1],"translation":[-1.1510058461894346e-9,0.05888568237423897,-2.3284098205067494e-8]},{"children":[65],"name":"RightUpperLegBone_54","rotation":[-0.9983845949172974,-1.1740221239620041e-8,8.300979459363589e-8,0.056817054748535156],"scale":[1,0.9999999403953552,0.9999998807907104],"translation":[5.040283745927354e-9,0.060937464237213135,-0.11530821025371552]},{"children":[66],"name":"RightLowerLegBone_53","rotation":[-4.225387595369057e-9,-4.367545614059054e-8,-0.00991107989102602,0.9999508857727051],"scale":[1,0.9999999403953552,1],"translation":[-9.311396098610203e-10,0.3229687809944153,-8.146027026818933e-17]},{"children":[67],"name":"RightFootBone_52","rotation":[-0.0440756119787693,0.00811734888702631,0.20038338005542755,0.9786920547485352],"scale":[0.9999999403953552,1.0000001192092896,1],"translation":[4.434635714201107e-10,0.3230322599411011,1.2731534049237325e-8]},{"name":"RightToesBone_51","rotation":[0.5206868052482605,-0.8537477850914001,-3.5555325439418084e-7,6.391075402234492e-8],"scale":[1.0000001192092896,1.0000001192092896,1],"translation":[-1.0333034428100518e-10,0.05888568237423897,-8.382936123041418e-9]}],"samplers":[{"magFilter":9729,"minFilter":9987,"wrapS":10497,"wrapT":10497}],"scene":0,"scenes":[{"name":"Sketchfab_Scene","nodes":[0]}],"skins":[{"inverseBindMatrices":20,"joints":[5,14,15,16,17,18,19,20,21,22,23,24,25,26,27,28,29,30,31,32,33,34,35,36,37,38,39,40,41,42,43,44,45,46,47,48,49,50,51,52,53,54,55,56,57,58,59,60,61,62,63,64,65,66,67],"skeleton":5}],"textures":[{"sampler":0,"source":0},{"sampler":0,"source":1}]}